<svg width="20" height="20" viewBox="0 0 20 20" fill="none" xmlns="http://www.w3.org/2000/svg">
<path d="M18.5715 2.85715H13.5715V2.14285C13.5715 0.959387 12.6121 0 11.4287 0H8.57152C7.38805 0 6.42867 0.959387 6.42867 2.14285V2.85715H1.42865C1.03415 2.85715 0.714355 3.17695 0.714355 3.57145C0.714355 3.96595 1.03419 4.28571 1.42865 4.28571H2.20506L3.57151 19.3507C3.6052 19.7196 3.91537 20.0015 4.28581 20H15.7144C16.0848 20.0015 16.395 19.7196 16.4287 19.3507L17.7951 4.28571H18.5715C18.966 4.28571 19.2858 3.96591 19.2858 3.57141C19.2858 3.17691 18.966 2.85715 18.5715 2.85715ZM7.85722 2.14285C7.85722 1.74835 8.17702 1.42856 8.57152 1.42856H11.4287C11.8232 1.42856 12.143 1.74835 12.143 2.14285V2.85715H7.85726V2.14285H7.85722ZM15.0622 18.5714H4.93796L3.64295 4.28571H7.14296H16.3608L15.0622 18.5714Z" fill="#4D4D4D" fill-opacity="0.3"/>
</svg>
