<svg width="24" height="25" viewBox="0 0 24 25" fill="none" xmlns="http://www.w3.org/2000/svg">
<path fill-rule="evenodd" clip-rule="evenodd" d="M12.001 0.813354C8.81442 0.813354 8.41451 0.827216 7.16294 0.883877C5.91382 0.940782 5.06118 1.13752 4.31513 1.42617C3.54341 1.72432 2.88878 2.12314 2.2366 2.77219C1.58393 3.421 1.18303 4.07224 0.882364 4.83973C0.591472 5.58217 0.39347 6.43063 0.337247 7.67281C0.281268 8.9179 0.266602 9.31599 0.266602 12.4861C0.266602 15.6562 0.280779 16.0529 0.337491 17.298C0.394936 18.5406 0.592694 19.3889 0.882608 20.1311C1.18254 20.8988 1.58344 21.55 2.23587 22.1988C2.88781 22.8481 3.54244 23.2479 4.31367 23.5461C5.06021 23.8347 5.91308 24.0315 7.16196 24.0884C8.41353 24.145 8.8132 24.1589 11.9996 24.1589C15.1864 24.1589 15.5851 24.145 16.8367 24.0884C18.0858 24.0315 18.9394 23.8347 19.686 23.5461C20.4574 23.2479 21.1111 22.8481 21.763 22.1988C22.4157 21.55 22.8166 20.8988 23.1173 20.1313C23.4057 19.3889 23.6037 18.5404 23.6624 17.2982C23.7186 16.0531 23.7333 15.6562 23.7333 12.4861C23.7333 9.31599 23.7186 8.91814 23.6624 7.67305C23.6037 6.43039 23.4057 5.58217 23.1173 4.83997C22.8166 4.07224 22.4157 3.421 21.763 2.77219C21.1104 2.12289 20.4577 1.72407 19.6852 1.42617C18.9372 1.13752 18.0841 0.940782 16.835 0.883877C15.5834 0.827216 15.185 0.813354 11.9974 0.813354H12.001ZM10.9486 2.91717C11.261 2.91669 11.6096 2.91717 12.0012 2.91717C15.134 2.91717 15.5053 2.92836 16.7425 2.98429C17.8865 3.03633 18.5074 3.2265 18.921 3.38627C19.4686 3.59784 19.8589 3.85075 20.2694 4.2593C20.68 4.66784 20.9343 5.05694 21.1474 5.60167C21.308 6.01264 21.4994 6.63033 21.5515 7.76842C21.6077 8.99893 21.6199 9.36856 21.6199 12.4837C21.6199 15.5989 21.6077 15.9685 21.5515 17.199C21.4992 18.3371 21.308 18.9548 21.1474 19.3658C20.9347 19.9105 20.68 20.2984 20.2694 20.7067C19.8587 21.1153 19.4688 21.3682 18.921 21.5797C18.5079 21.7402 17.8865 21.9299 16.7425 21.982C15.5056 22.0379 15.134 22.05 12.0012 22.05C8.86811 22.05 8.4968 22.0379 7.2599 21.982C6.11589 21.9294 5.49499 21.7393 5.08114 21.5795C4.53358 21.3679 4.14246 21.115 3.73179 20.7065C3.32112 20.2979 3.0669 19.9098 2.85374 19.3648C2.69314 18.9538 2.50174 18.3362 2.44967 17.1981C2.39345 15.9676 2.3822 15.5979 2.3822 12.4808C2.3822 9.3637 2.39345 8.99601 2.44967 7.7655C2.50198 6.62741 2.69314 6.00973 2.85374 5.59826C3.06641 5.05353 3.32112 4.66444 3.73179 4.25589C4.14246 3.84735 4.53358 3.59444 5.08114 3.38238C5.49475 3.22188 6.11589 3.0322 7.2599 2.97991C8.34231 2.93128 8.76178 2.91669 10.9486 2.91425V2.91717ZM18.2643 4.8551C17.487 4.8551 16.8563 5.48178 16.8563 6.25535C16.8563 7.02867 17.487 7.65608 18.2643 7.65608C19.0417 7.65608 19.6724 7.02867 19.6724 6.25535C19.6724 5.48203 19.0417 4.85462 18.2643 4.85462V4.8551ZM12.0011 6.49192C8.67342 6.49192 5.97546 9.17592 5.97546 12.4864C5.97546 15.7968 8.67342 18.4796 12.0011 18.4796C15.3287 18.4796 18.0257 15.7968 18.0257 12.4864C18.0257 9.17592 15.3285 6.49192 12.0008 6.49192H12.0011ZM12.0012 8.59545C14.1612 8.59545 15.9124 10.3374 15.9124 12.4864C15.9124 14.6351 14.1612 16.3773 12.0012 16.3773C9.84106 16.3773 8.09009 14.6351 8.09009 12.4864C8.09009 10.3374 9.84106 8.59545 12.0012 8.59545Z" fill="white"/>
</svg>
